# AST/ASF file generated using VICON BodyLanguage
# -----------------------------------------------
:version 1.10
:name VICON
:units
  mass 1.0
  length 0.45
  angle deg
:documentation
   .ast/.asf automatically generated from VICON data using
   VICON BodyBuilder and BodyLanguage model FoxedUp or BRILLIANT.MOD
:root
   order TX TY TZ RX RY RZ
   axis XYZ
   position 0 0 0  
   orientation 0 0 0 
:bonedata
  begin
     id 1 
     name lhipjoint
     direction 0.643824 -0.71708 0.266994 
     length 2.52133 
     axis 0 0 0  XYZ
  end
  begin
     id 2 
     name lfemur
     direction 0.34202 -0.939693 0  
     length 7.51824  
     axis 0 0 20  XYZ
    dof rx ry rz
    limits (-160.0 20.0)
           (-70.0 70.0)
           (-60.0 70.0)
  end
  begin
     id 3 
     name ltibia
     direction 0.34202 -0.939693 0   
     length 7.3685   
     axis 0 0 20   XYZ
    dof rx
    limits (-10.0 170.0)
  end
  begin
     id 4 
     name lfoot
     direction 0.105419 -0.289636 0.951314   
     length 2.20972   
     axis -90 7.62852e-016 20   XYZ
    dof rx rz
    limits (-45.0 90.0)
           (-70.0 20.0)
  end
  begin
     id 5 
     name ltoes
     direction 1.53549e-011 -4.21833e-011 1   
     length 1.10139   
     axis -90 7.62852e-016 20   XYZ
    dof rx
    limits (-90.0 20.0)
  end
  begin
     id 6 
     name rhipjoint
     direction -0.608823 -0.743445 0.276811   
     length 2.43192  
     axis 0 0 0  XYZ 
  end
  begin
     id 7 
     name rfemur
     direction -0.34202 -0.939693 0   
     length 7.69715   
     axis 0 0 -20   XYZ
    dof rx ry rz
    limits (-160.0 20.0)
           (-70.0 70.0)
           (-70.0 60.0)
  end
  begin
     id 8 
     name rtibia
     direction -0.34202 -0.939693 0   
     length 7.44924   
     axis 0 0 -20   XYZ
    dof rx
    limits (-10.0 170.0)
 end
 begin
     id 9 
     name rfoot
     direction -0.103614 -0.284677 0.953007   
     length 2.22623  
     axis -90 -7.62852e-016 -20   XYZ
    dof rx rz
    limits (-45.0 90.0)
           (-20.0 70.0)
  end
  begin
     id 10 
     name rtoes
     direction -1.53537e-011 -4.22026e-011 1   
     length 1.11   
     axis -90 -7.62852e-016 -20   XYZ
    dof rx
    limits (-90.0 20.0)
  end
  begin
     id 11 
     name lowerback
     direction -0.0101212 0.99662 -0.0815298   
     length 2.08277   
     axis 0 0 0   XYZ
    dof rx ry rz
    limits (-20.0 45.0)
           (-30.0 30.0)
           (-30.0 30.0)
  end
  begin
     id 12 
     name upperback
     direction 0.024314 0.999591 -0.0150645   
     length 2.08524   
     axis 0 0 0   XYZ
    dof rx ry rz
    limits (-20.0 45.0)
           (-30.0 30.0)
           (-30.0 30.0)
  end
  begin
     id 13 
     name thorax
     direction 0.0285959 0.999323 0.0231357   
     length 2.09645   
     axis 0 0 0   XYZ
    dof rx ry rz
    limits (-20.0 45.0)
           (-30.0 30.0)
           (-30.0 30.0)
  end
  begin
     id 14 
     name lowerneck
     direction -0.065512 0.979301 0.191515   
     length 1.63798   
     axis 0 0 0   XYZ
    dof rx ry rz
    limits (-20.0 45.0)
           (-30.0 30.0)
           (-30.0 30.0)
  end
  begin
     id 15 
     name upperneck
     direction 0.0498479 0.98191 -0.182667   
     length 1.68731   
     axis 0 0 0   XYZ
    dof rx ry rz
    limits (-20.0 45.0)
           (-30.0 30.0)
           (-30.0 30.0)
  end
  begin
     id 16
     name head
     direction 0.0230358 0.996257 -0.0833175  
     length 1.69785  
     axis 0 0 0   XYZ
    dof rx ry rz
    limits (-20.0 45.0)
           (-30.0 30.0)
           (-30.0 30.0)
  end
  begin
     id 17 
     name lclavicle
     direction 0.967963 0.201165 -0.150269  
     length 3.63976  
     axis 0 0 0   XYZ
    dof ry rz
    limits (-20.0 10.0)
           (0.0 20.0)
  end
  begin
     id 18 
     name lhumerus
     direction 1 -4.48954e-011 -2.92837e-028   
     length 5.32462   
     axis 180 -30 -90   XYZ
    dof rx ry rz
    limits (-60.0 90.0)
           (-90.0 90.0)
           (-90.0 90.0)
  end
  begin
     id 19
     name lradius
     direction 1 -4.48958e-011 -6.39511e-027   
     length 3.48402   
     axis 180 -30 -90   XYZ
    dof rx
    limits (-10.0 170.0)
  end
  begin
     id 20
     name lwrist
     direction 1 -4.48975e-011 -1.1413e-026   
     length 1.74201   
     axis 6.88575e-015 90 90   XYZ
    dof ry
    limits (-180.0 0.0)
 end
  begin
     id 21 
     name lhand
     direction 1 -4.48899e-011 -2.28192e-026   
     length 0.572476   
     axis 1.45643e-014 90 90   XYZ
    dof rx rz
    limits (-90.0 90.0)
           (-45.0 45.0)
  end
  begin
     id 22 
     name lfingers
     direction 1 -4.49155e-011 -4.5684e-026   
     length 0.461545   
     axis 2.91283e-014 90 90   XYZ
    dof rx
    limits (0.0 90.0)
  end
  begin
     id 23
     name lthumb
     direction 0.707107 -6.34943e-011 0.707107   
     length 0.662688   
     axis -90 45 -2.25915e-014   XYZ
    dof rx rz
    limits (-45.0 45.0)
           (-45.0 45.0)
  end
  begin
     id 24 
     name rclavicle
     direction -0.964103 0.264019 -0.0282629   
     length 3.54491  
     axis 0 0 0   XYZ 
    dof ry rz
    limits (-10.0 20.0)
           (-20.0 0.0)
  end
  begin
     id 25 
     name rhumerus
     direction -1 -4.48964e-011 -2.45032e-027  
     length 5.33589   
     axis 180 30 90   XYZ
    dof rx ry rz
    limits (-90.0 60.0)
           (-90.0 90.0)
           (-90.0 90.0)
  end
  begin
     id 26 
     name rradius
     direction -1 -4.48987e-011 -1.55093e-027   
     length 3.64134   
     axis 180 30 90   XYZ
    dof rx
    limits (-10.0 170.0)
  end
  begin
     id 27 
     name rwrist
     direction -1 -4.4897e-011 -1.14128e-026   
     length 1.82067   
     axis 6.88575e-015 -90 -90   XYZ
    dof ry
    limits (-180.0 0.0)
  end
  begin
     id 28
     name rhand
     direction -1 -4.49021e-011 -2.28301e-026   
     length 0.734811   
     axis 1.45643e-014 -90 -90   XYZ
    dof rx rz
    limits (-90.0 90.0)
           (-45.0 45.0)
  end
  begin
     id 29
     name rfingers
     direction -1 -4.48862e-011 -4.56319e-026   
     length 0.592424   
     axis 2.91283e-014 -90 -90   XYZ
    dof rx
    limits (0.0 90.0)
  end
  begin
     id 30
     name rthumb
     direction -0.707107 -6.34978e-011 0.707107   
     length 0.850605   
     axis -90 -45 2.25915e-014   XYZ
    dof rx rz
    limits (-45.0 45.0)
           (-45.0 45.0)
  end
:hierarchy
  begin
    root lhipjoint rhipjoint lowerback
    lhipjoint lfemur
    lfemur ltibia
    ltibia lfoot
    lfoot ltoes
    rhipjoint rfemur
    rfemur rtibia
    rtibia rfoot
    rfoot rtoes
    lowerback upperback
    upperback thorax
    thorax lowerneck lclavicle rclavicle
    lowerneck upperneck
    upperneck head
    lclavicle lhumerus
    lhumerus lradius
    lradius lwrist
    lwrist lhand lthumb
    lhand lfingers
    rclavicle rhumerus
    rhumerus rradius
    rradius rwrist
    rwrist rhand rthumb
    rhand rfingers
  end

#!OML:ASF F:\VICON\USERDATA\INSTALL\rory3\rory3.ASF
:FULLY-SPECIFIED
:DEGREES
131
root 0.585668 17.6897 9.34205 -172.544 2.76101 -181.238
lowerback 2.13859 -0.408031 -6.42694
upperback 0.121455 -0.667002 2.18884
thorax -0.975725 -0.298147 5.90731
lowerneck -19.2315 -2.6258 -8.04281
upperneck 34.77 1.13978 1.4131
head 15.4803 0.452505 2.45096
rclavicle 6.4605e-015 -1.23246e-014
rhumerus -33.4995 -6.78231 -78.6323
rradius 34.4066
rwrist 20.6901
rhand -17.9803 3.06737
rfingers 7.12502
rthumb 8.28935 -26.75
lclavicle 6.4605e-015 -1.23246e-014
lhumerus -28.7937 10.7901 83.894
lradius 25.8587
lwrist -11.3392
lhand -12.2616 25.2697
lfingers 7.12502
lthumb 13.8049 54.7916
rfemur -31.5993 0.814524 17.3118
rtibia 40.2192
rfoot -18.2128 -4.74604
rtoes 0.322276
lfemur -9.05344 1.907 -24.1588
ltibia 21.0741
lfoot -17.0739 3.95417
ltoes -11.4418
132
root 0.608724 17.6937 9.31421 -172.425 2.52271 -181.251
lowerback 2.21421 -0.493032 -6.46099
upperback 0.0820834 -0.785863 2.24099
thorax -1.04 -0.353777 5.98617
lowerneck -19.3711 -2.63928 -8.06172
upperneck 34.7892 1.1021 1.47725
head 15.5231 0.436797 2.47544
rclavicle -6.90777e-015 -2.26615e-014
rhumerus -33.3953 -6.51543 -78.5781
rradius 34.6195
rwrist 20.2775
rhand -18.0718 3.18286
rfingers 7.12502
rthumb 8.201 -26.638
lclavicle -6.90777e-015 -2.26615e-014
lhumerus -28.8018 10.8063 83.8949
lradius 25.8524
lwrist -11.3987
lhand -12.3622 25.1913
lfingers 7.12502
lthumb 13.708 54.7198
rfemur -31.756 0.683108 17.3759
rtibia 39.7194
rfoot -18.1088 -4.34261
rtoes -0.533868
lfemur -9.04082 1.68847 -24.0541
ltibia 20.9816
lfoot -17.0629 3.9342
ltoes -11.472
133
root 0.633462 17.6886 9.2829 -172.342 2.385 -181.402
lowerback 2.23399 -0.512794 -6.60909
upperback 0.0804108 -0.817961 2.23356
thorax -1.04611 -0.369131 6.06421
lowerneck -19.3633 -2.67785 -8.18269
upperneck 34.6249 1.00276 1.58531
head 15.4467 0.387572 2.51583
rclavicle -4.57205e-015 -4.37326e-015
rhumerus -33.2674 -6.53973 -78.4304
rradius 34.8398
rwrist 20.0877
rhand -18.0473 3.31727
rfingers 7.12502
rthumb 8.22471 -26.5026
lclavicle -4.57205e-015 -4.37326e-015
lhumerus -28.7196 10.774 83.9323
lradius 25.8584
lwrist -11.3963
lhand -12.3258 25.2388
lfingers 7.12502
lthumb 13.743 54.7649
rfemur -31.8881 0.718548 17.2062
rtibia 39.262
rfoot -17.9191 -3.84463
rtoes 2.02408
lfemur -8.98487 1.74156 -24.1033
ltibia 20.8809
lfoot -17.0453 3.72914
ltoes -11.6066
134
root 0.656917 17.6782 9.24631 -172.328 2.3811 -181.449
lowerback 2.31325 -0.497058 -6.67038
upperback 0.0800567 -0.802268 2.28579
thorax -1.09185 -0.358754 6.15513
lowerneck -19.4812 -2.69781 -8.26802
upperneck 34.5978 1.00795 1.56477
head 15.4622 0.369874 2.52172
rclavicle 3.47873e-015 -2.06736e-014
rhumerus -33.1407 -6.38586 -78.251
rradius 35.008
rwrist 19.8672
rhand -18.1201 3.16766
rfingers 7.12502
rthumb 8.15446 -26.655
lclavicle 3.47873e-015 -2.06736e-014
lhumerus -28.7647 10.6672 84.0376
lradius 26.0045
lwrist -11.2353
lhand -12.2871 25.3817
lfingers 7.12502
lthumb 13.7804 54.9053
rfemur -31.9157 1.12174 17.0431
rtibia 38.8275
rfoot -17.8668 -3.15433
rtoes 5.99073
lfemur -8.80095 1.79943 -24.053
ltibia 20.7175
lfoot -17.0897 3.62244
ltoes -11.6373
135
root 0.680876 17.6712 9.20964 -172.374 2.30383 -181.428
lowerback 2.49719 -0.484741 -6.64779
upperback 0.067784 -0.795587 2.33019
thorax -1.20862 -0.350047 6.19172
lowerneck -19.5918 -2.73533 -8.10703
upperneck 34.5878 0.96667 1.36214
head 15.4881 0.340357 2.39963
rclavicle 1.2921e-015 -2.54444e-014
rhumerus -33.0691 -6.2484 -78.1321
rradius 35.2676
rwrist 19.4805
rhand -18.2956 2.87974
rfingers 7.12502
rthumb 7.98507 -26.9494
lclavicle 1.2921e-015 -2.54444e-014
lhumerus -28.9221 10.4912 84.0857
lradius 26.1744
lwrist -11.1776
lhand -12.174 25.346
lfingers 7.12502
lthumb 13.8893 54.8622
rfemur -31.8638 1.46891 17.0046
rtibia 38.3956
rfoot -17.7028 -2.85538
rtoes 7.30195
lfemur -8.53735 1.74394 -23.921
ltibia 20.5279
lfoot -17.0949 3.56035
ltoes -11.6727
136
root 0.707025 17.6726 9.17209 -172.378 2.09983 -181.432
lowerback 2.59464 -0.531085 -6.64377
upperback 0.0700355 -0.862153 2.36809
thorax -1.25009 -0.381431 6.23299
lowerneck -19.4859 -2.74734 -7.95893
upperneck 34.3154 0.875895 1.219
head 15.3379 0.295251 2.28385
rclavicle 5.86415e-015 2.54444e-014
rhumerus -33.0128 -6.1195 -78.0364
rradius 35.7282
rwrist 19.0186
rhand -18.188 2.84569
rfingers 7.12502
rthumb 8.08892 -26.9795
lclavicle 5.86415e-015 2.54444e-014
lhumerus -29.0548 10.3274 84.1318
lradius 26.3146
lwrist -11.0602
lhand -12.2316 25.4331
lfingers 7.12502
lthumb 13.8338 54.9531
rfemur -31.8566 1.57913 17.0188
rtibia 37.9587
rfoot -17.3329 -2.81101
rtoes 7.4856
lfemur -8.30556 1.60005 -23.8017
ltibia 20.3459
lfoot -17.0884 3.54699
ltoes -11.8432
137
root 0.731815 17.6748 9.13215 -172.386 1.90228 -181.509
lowerback 2.61054 -0.592623 -6.64123
upperback 0.121779 -0.943388 2.37695
thorax -1.19242 -0.425641 6.24311
lowerneck -19.46 -2.77121 -8.01662
upperneck 34.0899 0.792001 1.24561
head 15.2288 0.247673 2.27937
rclavicle 8.74653e-015 4.29375e-014
rhumerus -32.8637 -5.8712 -77.9868
rradius 36.2233
rwrist 18.5379
rhand -18.2584 2.91163
rfingers 7.12502
rthumb 8.02096 -26.9162
lclavicle 8.74653e-015 4.29375e-014
lhumerus -29.0681 10.3182 84.1644
lradius 26.4398
lwrist -10.851
lhand -12.2883 25.61
lfingers 7.12502
lthumb 13.7792 55.1337
rfemur -31.8702 1.62651 16.9738
rtibia 37.5535
rfoot -16.7462 -2.64862
rtoes 8.00922
lfemur -8.02862 1.28635 -23.7742
ltibia 20.1157
lfoot -17.0902 3.71344
ltoes -12.3138
138
root 0.757353 17.6763 9.09214 -172.378 1.69791 -181.495
lowerback 2.59331 -0.647469 -6.52903
upperback 0.21893 -1.00842 2.38969
thorax -1.07332 -0.465527 6.19279
lowerneck -19.6322 -2.78678 -8.04597
upperneck 33.9955 0.732016 1.30154
head 15.2259 0.214733 2.2924
rclavicle 6.95746e-016 -1.31198e-014
rhumerus -32.5396 -5.84063 -77.9118
rradius 36.5581
rwrist 18.2836
rhand -18.4226 3.03925
rfingers 7.12502
rthumb 7.86244 -26.7945
lclavicle 6.95746e-016 -1.31198e-014
lhumerus -28.9986 10.3276 84.1593
lradius 26.6344
lwrist -10.7211
lhand -12.0367 25.816
lfingers 7.12502
lthumb 14.0216 55.3231
rfemur -31.8932 1.54863 17.0647
rtibia 37.2146
rfoot -15.9872 -2.60933
rtoes 8.08248
lfemur -7.74735 1.03508 -23.6348
ltibia 19.8128
lfoot -17.0534 3.74735
ltoes -12.4497
139
root 0.785453 17.6771 9.05038 -172.419 1.50032 -181.469
lowerback 2.57451 -0.691527 -6.43895
upperback 0.340156 -1.05887 2.4013
thorax -0.93053 -0.499224 6.15311
lowerneck -19.6809 -2.77006 -7.99205
upperneck 33.8097 0.681193 1.32287
head 15.15 0.19391 2.27443
rclavicle -8.34896e-015 2.94201e-014
rhumerus -32.1447 -5.81145 -77.8397
rradius 36.7983
rwrist 17.9592
rhand -18.5966 2.98566
rfingers 7.12502
rthumb 7.69451 -26.8544
lclavicle -8.34896e-015 2.94201e-014
lhumerus -28.8753 10.3598 84.1364
lradius 26.6813
lwrist -10.8071
lhand -12.0833 25.8003
lfingers 7.12502
lthumb 13.9767 55.3105
rfemur -31.8489 1.40633 17.1903
rtibia 36.9791
rfoot -15.2266 -2.67059
rtoes 8.59381
lfemur -7.43579 0.890142 -23.4756
ltibia 19.5356
lfoot -17.015 3.73544
ltoes -12.6026
140
root 0.814477 17.6807 9.00732 -172.473 1.23325 -181.522
lowerback 2.61368 -0.759987 -6.46855
upperback 0.390012 -1.15003 2.46055
thorax -0.884843 -0.547216 6.23521
lowerneck -19.6473 -2.77027 -8.01711
upperneck 33.6418 0.670848 1.27324
head 15.0646 0.175097 2.249
rclavicle 8.34896e-015 -2.38542e-015
rhumerus -31.9021 -5.54822 -77.7156
rradius 37.1936
rwrist 17.3988
rhand -18.8729 2.6373
rfingers 7.12502
rthumb 7.4278 -27.2123
lclavicle 8.34896e-015 -2.38542e-015
lhumerus -28.9131 10.1639 84.2568
lradius 26.7876
lwrist -10.549
lhand -12.2785 25.7849
lfingers 7.12502
lthumb 13.7886 55.3079
rfemur -31.7863 1.22271 17.2354
rtibia 36.8912
rfoot -14.4592 -2.98702
rtoes 9.69793
lfemur -7.13184 0.749299 -23.3938
ltibia 19.3325
lfoot -16.9644 3.64199
ltoes -12.7672
141
root 0.84237 17.6802 8.96449 -172.504 0.966902 -181.509
lowerback 2.7545 -0.821157 -6.45023
upperback 0.353055 -1.23677 2.5758
thorax -0.98642 -0.584726 6.35227
lowerneck -19.6468 -2.80874 -8.10385
upperneck 33.6154 0.660457 1.22654
head 15.0551 0.152817 2.24155
rclavicle -8.34896e-015 1.98785e-015
rhumerus -31.7641 -5.17885 -77.5385
rradius 37.6627
rwrist 16.8745
rhand -18.9671 2.46444
rfingers 7.12502
rthumb 7.33689 -27.3884
lclavicle -8.34896e-015 1.98785e-015
lhumerus -29.051 10.2032 84.3509
lradius 26.8638
lwrist -10.5757
lhand -12.3114 25.3202
lfingers 7.12502
lthumb 13.7569 54.8454
rfemur -31.708 1.32649 17.2775
rtibia 36.9529
rfoot -13.973 -3.58838
rtoes 12.5511
lfemur -6.83711 0.557122 -23.2455
ltibia 19.118
lfoot -16.9385 3.64076
ltoes -13.1023
142
root 0.874873 17.6728 8.92218 -172.64 0.711377 -181.508
lowerback 3.01717 -0.862843 -6.47423
upperback 0.330638 -1.30574 2.66336
thorax -1.14358 -0.611298 6.46696
lowerneck -19.5533 -2.84571 -8.18704
upperneck 33.5323 0.6175 1.2275
head 14.9988 0.125452 2.24527
rclavicle -6.36111e-015 3.18055e-014
rhumerus -31.5941 -4.80338 -77.4027
rradius 38.1185
rwrist 16.3959
rhand -18.9489 2.27034
rfingers 7.12502
rthumb 7.35448 -27.5818
lclavicle -6.36111e-015 3.18055e-014
lhumerus -29.2459 10.2207 84.3832
lradius 26.9644
lwrist -10.7024
lhand -12.2889 25.0323
lfingers 7.12502
lthumb 13.7786 54.556
rfemur -31.478 1.53618 17.3079
rtibia 37.1408
rfoot -13.8814 -4.28888
rtoes 15.3899
lfemur -6.41971 0.344606 -23.0893
ltibia 18.8994
lfoot -16.9723 3.61176
ltoes -13.0875
143
root 0.910528 17.671 8.87559 -172.739 0.502289 -181.562
lowerback 3.11257 -0.89221 -6.55935
upperback 0.358675 -1.35093 2.70919
thorax -1.15763 -0.63318 6.56765
lowerneck -19.408 -2.83428 -8.22714
upperneck 33.2463 0.563836 1.27291
head 14.8347 0.100172 2.24995
rclavicle 3.97569e-015 2.8625e-014
rhumerus -31.3355 -4.49099 -77.2993
rradius 38.5956
rwrist 15.9482
rhand -18.8871 2.16482
rfingers 7.12502
rthumb 7.41415 -27.6853
lclavicle 3.97569e-015 2.8625e-014
lhumerus -29.3548 10.1291 84.4257
lradius 27.0894
lwrist -10.5207
lhand -12.3426 24.912
lfingers 7.12502
lthumb 13.7268 54.4392
rfemur -31.3165 1.46757 17.3977
rtibia 37.3921
rfoot -13.9429 -4.98817
rtoes 14.6871
lfemur -6.13178 0.214912 -22.9911
ltibia 18.8642
lfoot -17.0629 3.57412
ltoes -12.9574
144
root 0.940935 17.675 8.83321 -172.755 0.340188 -181.537
lowerback 3.1768 -0.903531 -6.48991
upperback 0.384002 -1.36371 2.76796
thorax -1.16541 -0.639184 6.5916
lowerneck -19.4036 -2.84675 -8.30124
upperneck 33.0314 0.507108 1.31487
head 14.7375 0.0655216 2.26119
rclavicle -4.30369e-014 9.54166e-015
rhumerus -30.9553 -4.26622 -77.1651
rradius 38.9826
rwrist 15.4671
rhand -18.8215 2.10899
rfingers 7.12502
rthumb 7.47749 -27.7389
lclavicle -4.30369e-014 9.54166e-015
lhumerus -29.4101 10.1314 84.4838
lradius 27.2989
lwrist -10.3725
lhand -12.2627 25.0454
lfingers 7.12502
lthumb 13.8038 54.5674
rfemur -31.3267 1.06695 17.7096
rtibia 37.6417
rfoot -13.8731 -5.75535
rtoes 9.68281
lfemur -6.0165 -0.127679 -22.8504
ltibia 18.9594
lfoot -17.1602 3.74623
ltoes -12.9782
145
root 0.964665 17.661 8.79613 -172.752 0.274569 -181.441
lowerback 3.23646 -0.880333 -6.23983
upperback 0.428446 -1.32244 2.80966
thorax -1.16407 -0.619255 6.4914
lowerneck -19.5379 -2.87758 -8.31851
upperneck 32.9527 0.446005 1.32653
head 14.735 0.0309735 2.2545
rclavicle 1.21259e-014 -1.27222e-014
rhumerus -30.4717 -4.12529 -77.0274
rradius 39.3565
rwrist 15.0502
rhand -18.7933 1.83837
rfingers 7.12502
rthumb 7.50469 -28.0085
lclavicle 1.21259e-014 -1.27222e-014
lhumerus -29.4291 10.0594 84.5421
lradius 27.5468
lwrist -10.3549
lhand -12.0344 25.3017
lfingers 7.12502
lthumb 14.0238 54.8086
rfemur -31.2177 0.986078 17.9105
rtibia 37.8336
rfoot -14.2327 -5.65509
rtoes 10.1943
lfemur -5.90905 -0.476079 -22.6901
ltibia 19.0245
lfoot -17.2432 4.17639
ltoes -13.5673
